<svg width="91" height="43" viewBox="0 0 91 43" fill="none" xmlns="http://www.w3.org/2000/svg">
<path d="M1.25 33.5V32.875H1.875V33.5H1.25ZM0 36V31.625H0.625V32.25H1.25V32.875H0.625V36H0ZM2.5 36V34.125H1.875V33.5H2.5V31.625H3.125V36H2.5ZM4.375 36V35.375H6.875V36H4.375ZM3.75 35.375V33.5H4.375V34.125H6.25V33.5H6.875V34.75H4.375V35.375H3.75ZM4.375 33.5V32.875H6.25V33.5H4.375ZM8.75 36V35.375H9.375V36H8.75ZM8.125 35.375V32.875H7.5V32.25H8.125V31.625H8.75V32.25H9.375V32.875H8.75V35.375H8.125ZM10 35.375V32.875H10.625V35.375H10ZM10.625 36V35.375H11.25V34.125H11.875V35.375H12.5V32.875H13.125V36H10.625ZM14.375 36V35.375H16.25V36H14.375ZM13.75 35.375V33.5H14.375V35.375H13.75ZM16.25 35.375V33.5H16.875V35.375H16.25ZM14.375 33.5V32.875H16.25V33.5H14.375ZM20 34.125V33.5H20.625V34.125H20ZM17.5 36V32.875H18.125V33.5H18.75V34.125H18.125V36H17.5ZM18.75 33.5V32.875H20V33.5H18.75ZM23.125 36V35.375H23.75V36H23.125ZM22.5 35.375V34.75H23.125V35.375H22.5ZM22.5 34.125V33.5H23.125V34.125H22.5ZM23.125 33.5V32.875H23.75V33.5H23.125ZM21.25 36V31.625H21.875V34.125H22.5V34.75H21.875V36H21.25ZM25 36V35.375H27.5V36H25ZM24.375 35.375V33.5H25V34.125H26.875V33.5H27.5V34.75H25V35.375H24.375ZM25 33.5V32.875H26.875V33.5H25ZM28.125 35.375V33.5H28.75V35.375H28.125ZM28.75 33.5V32.875H30V33.5H28.75ZM28.75 36V35.375H30.625V34.125H30V33.5H30.625V31.625H31.25V36H28.75ZM33.75 36V35.375H35.625V36H33.75ZM33.125 35.375V31.625H33.75V35.375H33.125ZM35.625 35.375V31.625H36.25V35.375H35.625ZM39.375 36V33.5H40V36H39.375ZM36.875 36V32.875H39.375V33.5H37.5V36H36.875ZM40.625 36V32.875H41.25V36H40.625ZM40.625 32.25V31.625H41.25V32.25H40.625ZM43.125 36V35.375H43.75V36H43.125ZM42.5 35.375V34.75H43.125V35.375H42.5ZM43.75 35.375V34.75H44.375V35.375H43.75ZM41.875 34.75V32.875H42.5V34.75H41.875ZM44.375 34.75V32.875H45V34.75H44.375ZM46.25 36V35.375H48.75V36H46.25ZM45.625 35.375V33.5H46.25V34.125H48.125V33.5H48.75V34.75H46.25V35.375H45.625ZM46.25 33.5V32.875H48.125V33.5H46.25ZM51.875 34.125V33.5H52.5V34.125H51.875ZM49.375 36V32.875H50V33.5H50.625V34.125H50V36H49.375ZM50.625 33.5V32.875H51.875V33.5H50.625ZM53.125 36V35.375H55.625V36H53.125ZM55.625 35.375V34.75H56.25V35.375H55.625ZM53.75 34.75V34.125H55.625V34.75H53.75ZM53.125 34.125V33.5H53.75V34.125H53.125ZM53.75 33.5V32.875H56.25V33.5H53.75ZM56.875 35.375V34.75H57.5V35.375H56.875ZM57.5 36V35.375H59.375V34.75H57.5V34.125H59.375V33.5H60V36H57.5ZM57.5 33.5V32.875H59.375V33.5H57.5ZM61.25 36V35.375H61.875V36H61.25ZM60.625 35.375V31.625H61.25V35.375H60.625ZM65 36V32.25H63.75V31.625H66.875V32.25H65.625V36H65ZM70 34.125V33.5H70.625V34.125H70ZM67.5 36V32.875H68.125V33.5H68.75V34.125H68.125V36H67.5ZM68.75 33.5V32.875H70V33.5H68.75ZM71.25 35.375V34.75H71.875V35.375H71.25ZM71.875 36V35.375H73.75V34.75H71.875V34.125H73.75V33.5H74.375V36H71.875ZM71.875 33.5V32.875H73.75V33.5H71.875ZM75.625 36V35.375H77.5V36H75.625ZM77.5 35.375V34.75H78.125V35.375H77.5ZM75 35.375V33.5H75.625V35.375H75ZM77.5 34.125V33.5H78.125V34.125H77.5ZM75.625 33.5V32.875H77.5V33.5H75.625ZM80.625 36V35.375H81.25V36H80.625ZM80 35.375V34.75H80.625V35.375H80ZM80 34.125V33.5H80.625V34.125H80ZM80.625 33.5V32.875H81.25V33.5H80.625ZM78.75 36V31.625H79.375V34.125H80V34.75H79.375V36H78.75ZM82.5 36V35.375H85V36H82.5ZM81.875 35.375V33.5H82.5V34.125H84.375V33.5H85V34.75H82.5V35.375H81.875ZM82.5 33.5V32.875H84.375V33.5H82.5ZM88.125 34.125V33.5H88.75V34.125H88.125ZM85.625 36V32.875H86.25V33.5H86.875V34.125H86.25V36H85.625ZM86.875 33.5V32.875H88.125V33.5H86.875ZM0.625 42V41.375H2.5V42H0.625ZM0 41.375V39.5H0.625V41.375H0ZM2.5 41.375V39.5H3.125V41.375H2.5ZM0.625 39.5V38.875H2.5V39.5H0.625ZM4.375 42V39.5H3.75V38.875H4.375V38.25H5V38.875H6.25V39.5H5V42H4.375ZM5 38.25V37.625H6.25V38.25H5ZM8.75 42V41.375H10.625V42H8.75ZM8.125 41.375V40.75H8.75V41.375H8.125ZM10.625 41.375V39.5H11.25V41.375H10.625ZM8.75 39.5V38.875H10.625V39.5H8.75ZM8.125 38.875V38.25H8.75V38.875H8.125ZM8.75 38.25V37.625H11.25V38.25H8.75ZM14.375 40.75V39.5H15V40.75H14.375ZM11.875 42.625V38.875H12.5V39.5H13.125V40.125H12.5V40.75H14.375V41.375H12.5V42.625H11.875ZM13.125 39.5V38.875H14.375V39.5H13.125ZM15.625 41.375V40.75H16.25V41.375H15.625ZM16.25 42V41.375H18.125V40.75H16.25V40.125H18.125V39.5H18.75V42H16.25ZM16.25 39.5V38.875H18.125V39.5H16.25ZM19.375 41.375V38.875H20V41.375H19.375ZM20 42V41.375H20.625V40.125H21.25V41.375H21.875V38.875H22.5V42H20ZM25.625 42V39.5H26.25V42H25.625ZM23.125 42V38.875H25.625V39.5H23.75V42H23.125ZM26.875 41.375V40.75H27.5V41.375H26.875ZM27.5 42V41.375H29.375V40.75H27.5V40.125H29.375V39.5H30V42H27.5ZM27.5 39.5V38.875H29.375V39.5H27.5ZM33.125 41.375V39.5H33.75V41.375H33.125ZM31.875 39.5V38.875H33.125V39.5H31.875ZM30.625 42V37.625H31.25V39.5H31.875V40.125H31.25V41.375H33.125V42H30.625ZM35 42V41.375H35.625V42H35ZM34.375 41.375V37.625H35V41.375H34.375ZM36.875 42V41.375H39.375V42H36.875ZM36.25 41.375V39.5H36.875V40.125H38.75V39.5H39.375V40.75H36.875V41.375H36.25ZM36.875 39.5V38.875H38.75V39.5H36.875ZM40 42V41.375H42.5V42H40ZM42.5 41.375V40.75H43.125V41.375H42.5ZM40.625 40.75V40.125H42.5V40.75H40.625ZM40 40.125V39.5H40.625V40.125H40ZM40.625 39.5V38.875H43.125V39.5H40.625Z" fill="white"/>
<path d="M0 28V0H4.36C5.82667 0 7.32 0.12 8.84 0.36C10.3867 0.573334 11.8667 0.973334 13.28 1.56C14.6933 2.12 15.96 2.90667 17.08 3.92C18.2267 4.93333 19.1333 6.21333 19.8 7.76C20.4667 9.30667 20.8 11.1867 20.8 13.4V28H16.16V13.44C16.16 11.44 15.8133 9.82667 15.12 8.6C14.4267 7.34667 13.5067 6.4 12.36 5.76C11.2133 5.12 9.96 4.68 8.6 4.44C7.26667 4.2 5.94667 4.08 4.64 4.08V28H0Z" fill="white"/>
<path d="M45.5859 28H41.2259C39.7593 28 38.2526 27.8933 36.7059 27.68C35.1859 27.44 33.7193 27.04 32.3059 26.48C30.8926 25.8933 29.6126 25.0933 28.4659 24.08C27.3459 23.0667 26.4526 21.7867 25.7859 20.24C25.1193 18.6933 24.7859 16.8133 24.7859 14.6V0H29.4259V14.56C29.4259 16.56 29.7726 18.1867 30.4659 19.44C31.1859 20.6667 32.1193 21.6 33.2659 22.24C34.4126 22.88 35.6526 23.32 36.9859 23.56C38.3459 23.8 39.6793 23.92 40.9859 23.92V0H45.5859V28Z" fill="white"/>
<path d="M68.3719 28.04C66.6919 27.9333 65.0119 27.64 63.3319 27.16C61.6785 26.68 60.1585 25.9333 58.7719 24.92C57.4119 23.88 56.3052 22.5333 55.4519 20.88C54.6252 19.2 54.2119 17.1333 54.2119 14.68V4.44H50.3719V0H67.1719V4.44H58.8519V14.64C58.8519 16.3467 59.1185 17.7733 59.6519 18.92C60.2119 20.04 60.9452 20.9333 61.8519 21.6C62.7852 22.2667 63.8119 22.76 64.9319 23.08C66.0785 23.4 67.2252 23.6 68.3719 23.68V28.04Z" fill="white"/>
<path d="M71.0731 28V23.56H78.4731C80.2598 23.56 81.5931 23.24 82.4731 22.6C83.3531 21.96 83.7931 20.8267 83.7931 19.2C83.7931 18.1867 83.5398 17.4267 83.0331 16.92C82.5531 16.3867 81.9531 15.9867 81.2331 15.72C80.5131 15.4267 79.7931 15.16 79.0731 14.92C78.1665 14.6 77.2198 14.2267 76.2331 13.8C75.2731 13.3467 74.3798 12.7467 73.5531 12C72.7531 11.2267 72.0998 10.2 71.5931 8.92C71.0865 7.61333 70.8331 5.94667 70.8331 3.92V0H87.1531V4.44H75.4331C75.4331 5.64 75.5798 6.62667 75.8731 7.4C76.1931 8.14667 76.7665 8.8 77.5931 9.36C78.4198 9.89333 79.6198 10.44 81.1931 11C81.8598 11.24 82.6065 11.5467 83.4331 11.92C84.2598 12.2667 85.0465 12.7467 85.7931 13.36C86.5665 13.9467 87.1931 14.72 87.6731 15.68C88.1798 16.64 88.4331 17.8267 88.4331 19.24C88.4331 21.2933 87.9531 22.9733 86.9931 24.28C86.0331 25.56 84.7665 26.5067 83.1931 27.12C81.6198 27.7067 79.8998 28 78.0331 28H71.0731Z" fill="white"/>
</svg>
